<mxfile host="Electron" agent="Mozilla/5.0 (Windows NT 10.0; Win64; x64) AppleWebKit/537.36 (KHTML, like Gecko) draw.io/26.2.15 Chrome/134.0.6998.205 Electron/35.2.1 Safari/537.36" version="26.2.15">
  <diagram name="Page-1" id="C_wbqUGqsOLfkPX3s1QY">
    <mxGraphModel dx="872" dy="577" grid="1" gridSize="10" guides="1" tooltips="1" connect="1" arrows="1" fold="1" page="1" pageScale="1" pageWidth="1169" pageHeight="827" math="1" shadow="0">
      <root>
        <mxCell id="0" />
        <mxCell id="1" parent="0" />
        <mxCell id="C1amQC0InOEVrKZE8ie4-4" style="edgeStyle=orthogonalEdgeStyle;rounded=0;orthogonalLoop=1;jettySize=auto;html=1;strokeWidth=2;" parent="1" source="C1amQC0InOEVrKZE8ie4-3" target="C1amQC0InOEVrKZE8ie4-5" edge="1">
          <mxGeometry relative="1" as="geometry">
            <mxPoint x="420" y="370" as="targetPoint" />
          </mxGeometry>
        </mxCell>
        <mxCell id="C1amQC0InOEVrKZE8ie4-3" value="" style="ellipse;html=1;shape=endState;fillColor=strokeColor;" parent="1" vertex="1">
          <mxGeometry x="400" y="240" width="40" height="40" as="geometry" />
        </mxCell>
        <mxCell id="C1amQC0InOEVrKZE8ie4-6" style="edgeStyle=orthogonalEdgeStyle;rounded=0;orthogonalLoop=1;jettySize=auto;html=1;exitX=0.25;exitY=1;exitDx=0;exitDy=0;strokeWidth=2;" parent="1" source="C1amQC0InOEVrKZE8ie4-5" edge="1">
          <mxGeometry relative="1" as="geometry">
            <mxPoint x="390.3333333333335" y="480.0000000000001" as="targetPoint" />
          </mxGeometry>
        </mxCell>
        <mxCell id="C1amQC0InOEVrKZE8ie4-31" value="&lt;font face=&quot;Courier New&quot;&gt;powerBtn = &lt;font style=&quot;color: rgb(51, 102, 0);&quot;&gt;ON&lt;/font&gt;&lt;/font&gt;" style="edgeLabel;html=1;align=center;verticalAlign=middle;resizable=0;points=[];" parent="C1amQC0InOEVrKZE8ie4-6" vertex="1" connectable="0">
          <mxGeometry x="-0.3031" y="-3" relative="1" as="geometry">
            <mxPoint as="offset" />
          </mxGeometry>
        </mxCell>
        <mxCell id="C1amQC0InOEVrKZE8ie4-5" value="&lt;font face=&quot;Courier New&quot;&gt;&lt;b&gt;POWER_OFF&lt;/b&gt;&lt;/font&gt;" style="rounded=1;whiteSpace=wrap;html=1;fillColor=#dae8fc;strokeColor=default;strokeWidth=2;" parent="1" vertex="1">
          <mxGeometry x="360" y="360" width="120" height="40" as="geometry" />
        </mxCell>
        <mxCell id="C1amQC0InOEVrKZE8ie4-9" value="&lt;span style=&quot;font-family: &amp;quot;Courier New&amp;quot;;&quot;&gt;powerBtn =&amp;nbsp;&lt;/span&gt;&lt;font style=&quot;font-family: &amp;quot;Courier New&amp;quot;; color: rgb(204, 0, 0);&quot;&gt;OFF&lt;/font&gt;" style="edgeStyle=orthogonalEdgeStyle;rounded=0;orthogonalLoop=1;jettySize=auto;html=1;exitX=0.75;exitY=0;exitDx=0;exitDy=0;entryX=0.75;entryY=1;entryDx=0;entryDy=0;strokeWidth=2;" parent="1" source="C1amQC0InOEVrKZE8ie4-8" target="C1amQC0InOEVrKZE8ie4-5" edge="1">
          <mxGeometry x="-0.25" relative="1" as="geometry">
            <mxPoint as="offset" />
          </mxGeometry>
        </mxCell>
        <mxCell id="C1amQC0InOEVrKZE8ie4-13" style="edgeStyle=orthogonalEdgeStyle;rounded=0;orthogonalLoop=1;jettySize=auto;html=1;exitX=0;exitY=0.25;exitDx=0;exitDy=0;entryX=1;entryY=0.25;entryDx=0;entryDy=0;strokeWidth=2;" parent="1" source="C1amQC0InOEVrKZE8ie4-8" target="C1amQC0InOEVrKZE8ie4-10" edge="1">
          <mxGeometry relative="1" as="geometry" />
        </mxCell>
        <mxCell id="C1amQC0InOEVrKZE8ie4-32" value="&lt;font face=&quot;Courier New&quot;&gt;distortBtn = &lt;font style=&quot;color: rgb(51, 102, 0);&quot;&gt;ON&lt;/font&gt;&lt;/font&gt;" style="edgeLabel;html=1;align=center;verticalAlign=middle;resizable=0;points=[];" parent="C1amQC0InOEVrKZE8ie4-13" vertex="1" connectable="0">
          <mxGeometry x="0.3667" y="1" relative="1" as="geometry">
            <mxPoint x="22" y="-11" as="offset" />
          </mxGeometry>
        </mxCell>
        <mxCell id="C1amQC0InOEVrKZE8ie4-20" style="edgeStyle=orthogonalEdgeStyle;rounded=0;orthogonalLoop=1;jettySize=auto;html=1;exitX=0.25;exitY=1;exitDx=0;exitDy=0;entryX=0.25;entryY=0;entryDx=0;entryDy=0;strokeWidth=2;" parent="1" source="C1amQC0InOEVrKZE8ie4-8" target="C1amQC0InOEVrKZE8ie4-19" edge="1">
          <mxGeometry relative="1" as="geometry" />
        </mxCell>
        <mxCell id="C1amQC0InOEVrKZE8ie4-8" value="&lt;font face=&quot;Courier New&quot;&gt;&lt;b&gt;ON_DAC_CLEAN&lt;/b&gt;&lt;/font&gt;" style="rounded=1;whiteSpace=wrap;html=1;fillColor=#dae8fc;strokeColor=default;strokeWidth=2;" parent="1" vertex="1">
          <mxGeometry x="360" y="480" width="120" height="40" as="geometry" />
        </mxCell>
        <mxCell id="C1amQC0InOEVrKZE8ie4-14" style="edgeStyle=orthogonalEdgeStyle;rounded=0;orthogonalLoop=1;jettySize=auto;html=1;exitX=1;exitY=0.75;exitDx=0;exitDy=0;entryX=0;entryY=0.75;entryDx=0;entryDy=0;strokeWidth=2;" parent="1" source="C1amQC0InOEVrKZE8ie4-10" target="C1amQC0InOEVrKZE8ie4-8" edge="1">
          <mxGeometry relative="1" as="geometry" />
        </mxCell>
        <mxCell id="C1amQC0InOEVrKZE8ie4-17" style="edgeStyle=orthogonalEdgeStyle;rounded=0;orthogonalLoop=1;jettySize=auto;html=1;exitX=0.25;exitY=1;exitDx=0;exitDy=0;entryX=0.25;entryY=0;entryDx=0;entryDy=0;strokeWidth=2;" parent="1" source="C1amQC0InOEVrKZE8ie4-10" target="C1amQC0InOEVrKZE8ie4-16" edge="1">
          <mxGeometry relative="1" as="geometry" />
        </mxCell>
        <mxCell id="C1amQC0InOEVrKZE8ie4-10" value="&lt;font face=&quot;Courier New&quot;&gt;&lt;b&gt;ON_DAC_DISTORT&lt;/b&gt;&lt;/font&gt;" style="rounded=1;whiteSpace=wrap;html=1;fillColor=#dae8fc;strokeColor=default;strokeWidth=2;" parent="1" vertex="1">
          <mxGeometry x="120" y="480" width="120" height="40" as="geometry" />
        </mxCell>
        <mxCell id="C1amQC0InOEVrKZE8ie4-15" value="" style="endArrow=classic;html=1;rounded=0;exitX=0.5;exitY=0;exitDx=0;exitDy=0;entryX=0;entryY=1;entryDx=0;entryDy=0;strokeWidth=2;" parent="1" source="C1amQC0InOEVrKZE8ie4-10" target="C1amQC0InOEVrKZE8ie4-5" edge="1">
          <mxGeometry width="50" height="50" relative="1" as="geometry">
            <mxPoint x="460" y="480" as="sourcePoint" />
            <mxPoint x="510" y="430" as="targetPoint" />
          </mxGeometry>
        </mxCell>
        <mxCell id="C1amQC0InOEVrKZE8ie4-18" style="edgeStyle=orthogonalEdgeStyle;rounded=0;orthogonalLoop=1;jettySize=auto;html=1;exitX=0.75;exitY=0;exitDx=0;exitDy=0;entryX=0.75;entryY=1;entryDx=0;entryDy=0;strokeWidth=2;" parent="1" source="C1amQC0InOEVrKZE8ie4-16" target="C1amQC0InOEVrKZE8ie4-10" edge="1">
          <mxGeometry relative="1" as="geometry" />
        </mxCell>
        <mxCell id="C1amQC0InOEVrKZE8ie4-23" style="edgeStyle=orthogonalEdgeStyle;rounded=0;orthogonalLoop=1;jettySize=auto;html=1;exitX=1;exitY=0.75;exitDx=0;exitDy=0;entryX=0;entryY=0.75;entryDx=0;entryDy=0;strokeWidth=2;" parent="1" source="C1amQC0InOEVrKZE8ie4-16" target="C1amQC0InOEVrKZE8ie4-19" edge="1">
          <mxGeometry relative="1" as="geometry" />
        </mxCell>
        <mxCell id="C1amQC0InOEVrKZE8ie4-24" style="edgeStyle=orthogonalEdgeStyle;rounded=0;orthogonalLoop=1;jettySize=auto;html=1;exitX=0;exitY=0.5;exitDx=0;exitDy=0;entryX=0;entryY=0.5;entryDx=0;entryDy=0;strokeWidth=2;" parent="1" source="C1amQC0InOEVrKZE8ie4-16" target="C1amQC0InOEVrKZE8ie4-5" edge="1">
          <mxGeometry relative="1" as="geometry">
            <Array as="points">
              <mxPoint x="80" y="620" />
              <mxPoint x="80" y="380" />
            </Array>
          </mxGeometry>
        </mxCell>
        <mxCell id="C1amQC0InOEVrKZE8ie4-16" value="&lt;font face=&quot;Courier New&quot;&gt;&lt;b&gt;ON_UART_DISTORT&lt;/b&gt;&lt;/font&gt;" style="rounded=1;whiteSpace=wrap;html=1;fillColor=#dae8fc;strokeColor=default;strokeWidth=2;" parent="1" vertex="1">
          <mxGeometry x="120" y="600" width="120" height="40" as="geometry" />
        </mxCell>
        <mxCell id="C1amQC0InOEVrKZE8ie4-21" style="edgeStyle=orthogonalEdgeStyle;rounded=0;orthogonalLoop=1;jettySize=auto;html=1;exitX=0.75;exitY=0;exitDx=0;exitDy=0;entryX=0.75;entryY=1;entryDx=0;entryDy=0;strokeWidth=2;" parent="1" source="C1amQC0InOEVrKZE8ie4-19" target="C1amQC0InOEVrKZE8ie4-8" edge="1">
          <mxGeometry relative="1" as="geometry" />
        </mxCell>
        <mxCell id="C1amQC0InOEVrKZE8ie4-22" style="edgeStyle=orthogonalEdgeStyle;rounded=0;orthogonalLoop=1;jettySize=auto;html=1;exitX=0;exitY=0.25;exitDx=0;exitDy=0;entryX=1;entryY=0.25;entryDx=0;entryDy=0;strokeWidth=2;" parent="1" source="C1amQC0InOEVrKZE8ie4-19" target="C1amQC0InOEVrKZE8ie4-16" edge="1">
          <mxGeometry relative="1" as="geometry" />
        </mxCell>
        <mxCell id="C1amQC0InOEVrKZE8ie4-19" value="&lt;font face=&quot;Courier New&quot;&gt;&lt;b&gt;ON_UART_CLEAN&lt;/b&gt;&lt;/font&gt;" style="rounded=1;whiteSpace=wrap;html=1;fillColor=#dae8fc;strokeColor=default;strokeWidth=2;" parent="1" vertex="1">
          <mxGeometry x="360" y="600" width="120" height="40" as="geometry" />
        </mxCell>
        <mxCell id="C1amQC0InOEVrKZE8ie4-26" style="edgeStyle=orthogonalEdgeStyle;rounded=0;orthogonalLoop=1;jettySize=auto;html=1;entryX=1;entryY=0.5;entryDx=0;entryDy=0;strokeWidth=2;" parent="1" target="C1amQC0InOEVrKZE8ie4-5" edge="1">
          <mxGeometry relative="1" as="geometry">
            <mxPoint x="480" y="620" as="sourcePoint" />
            <mxPoint x="480" y="500" as="targetPoint" />
            <Array as="points">
              <mxPoint x="560" y="620" />
              <mxPoint x="560" y="380" />
            </Array>
          </mxGeometry>
        </mxCell>
        <mxCell id="C1amQC0InOEVrKZE8ie4-33" value="&lt;font face=&quot;Courier New&quot;&gt;distortBtn = &lt;font style=&quot;color: rgb(204, 0, 0);&quot;&gt;OFF&lt;/font&gt;&lt;/font&gt;" style="edgeLabel;html=1;align=center;verticalAlign=middle;resizable=0;points=[];" parent="1" vertex="1" connectable="0">
          <mxGeometry x="300.0033333333335" y="520.0000000000001" as="geometry" />
        </mxCell>
        <mxCell id="C1amQC0InOEVrKZE8ie4-34" value="&lt;span style=&quot;color: rgb(0, 0, 0); font-family: &amp;quot;Courier New&amp;quot;; font-size: 11px; font-style: normal; font-variant-ligatures: normal; font-variant-caps: normal; font-weight: 400; letter-spacing: normal; orphans: 2; text-align: center; text-indent: 0px; text-transform: none; widows: 2; word-spacing: 0px; -webkit-text-stroke-width: 0px; white-space: nowrap; background-color: rgb(255, 255, 255); text-decoration-thickness: initial; text-decoration-style: initial; text-decoration-color: initial; display: inline !important; float: none;&quot;&gt;powerBtn =&lt;span&gt;&amp;nbsp;&lt;/span&gt;&lt;/span&gt;&lt;font data-mx-given-colors=&quot;{&amp;quot;color&amp;quot;:&amp;quot;rgb(204, 0, 0)&amp;quot;}&quot; style=&quot;forced-color-adjust: none; font-family: &amp;quot;Courier New&amp;quot;; font-size: 11px; font-style: normal; font-variant-ligatures: normal; font-variant-caps: normal; font-weight: 400; letter-spacing: normal; orphans: 2; text-align: center; text-indent: 0px; text-transform: none; widows: 2; word-spacing: 0px; -webkit-text-stroke-width: 0px; white-space: nowrap; background-color: rgb(255, 255, 255); text-decoration-thickness: initial; text-decoration-style: initial; text-decoration-color: initial; color: rgb(204, 0, 0);&quot;&gt;OFF&lt;/font&gt;" style="text;whiteSpace=wrap;html=1;" parent="1" vertex="1">
          <mxGeometry x="210" y="430" width="130" height="40" as="geometry" />
        </mxCell>
        <mxCell id="C1amQC0InOEVrKZE8ie4-35" value="&lt;span style=&quot;color: rgb(0, 0, 0); font-family: &amp;quot;Courier New&amp;quot;; font-size: 11px; font-style: normal; font-variant-ligatures: normal; font-variant-caps: normal; font-weight: 400; letter-spacing: normal; orphans: 2; text-align: center; text-indent: 0px; text-transform: none; widows: 2; word-spacing: 0px; -webkit-text-stroke-width: 0px; white-space: nowrap; background-color: rgb(255, 255, 255); text-decoration-thickness: initial; text-decoration-style: initial; text-decoration-color: initial; display: inline !important; float: none;&quot;&gt;powerBtn =&lt;span&gt;&amp;nbsp;&lt;/span&gt;&lt;/span&gt;&lt;font data-mx-given-colors=&quot;{&amp;quot;color&amp;quot;:&amp;quot;rgb(204, 0, 0)&amp;quot;}&quot; style=&quot;forced-color-adjust: none; font-family: &amp;quot;Courier New&amp;quot;; font-size: 11px; font-style: normal; font-variant-ligatures: normal; font-variant-caps: normal; font-weight: 400; letter-spacing: normal; orphans: 2; text-align: center; text-indent: 0px; text-transform: none; widows: 2; word-spacing: 0px; -webkit-text-stroke-width: 0px; white-space: nowrap; background-color: rgb(255, 255, 255); text-decoration-thickness: initial; text-decoration-style: initial; text-decoration-color: initial; color: rgb(204, 0, 0);&quot;&gt;OFF&lt;/font&gt;" style="text;whiteSpace=wrap;html=1;" parent="1" vertex="1">
          <mxGeometry x="160" y="350" width="130" height="40" as="geometry" />
        </mxCell>
        <mxCell id="C1amQC0InOEVrKZE8ie4-36" value="&lt;span style=&quot;color: rgb(0, 0, 0); font-family: &amp;quot;Courier New&amp;quot;; font-size: 11px; font-style: normal; font-variant-ligatures: normal; font-variant-caps: normal; font-weight: 400; letter-spacing: normal; orphans: 2; text-align: center; text-indent: 0px; text-transform: none; widows: 2; word-spacing: 0px; -webkit-text-stroke-width: 0px; white-space: nowrap; background-color: rgb(255, 255, 255); text-decoration-thickness: initial; text-decoration-style: initial; text-decoration-color: initial; display: inline !important; float: none;&quot;&gt;powerBtn =&lt;span&gt;&amp;nbsp;&lt;/span&gt;&lt;/span&gt;&lt;font data-mx-given-colors=&quot;{&amp;quot;color&amp;quot;:&amp;quot;rgb(204, 0, 0)&amp;quot;}&quot; style=&quot;forced-color-adjust: none; font-family: &amp;quot;Courier New&amp;quot;; font-size: 11px; font-style: normal; font-variant-ligatures: normal; font-variant-caps: normal; font-weight: 400; letter-spacing: normal; orphans: 2; text-align: center; text-indent: 0px; text-transform: none; widows: 2; word-spacing: 0px; -webkit-text-stroke-width: 0px; white-space: nowrap; background-color: rgb(255, 255, 255); text-decoration-thickness: initial; text-decoration-style: initial; text-decoration-color: initial; color: rgb(204, 0, 0);&quot;&gt;OFF&lt;/font&gt;" style="text;whiteSpace=wrap;html=1;" parent="1" vertex="1">
          <mxGeometry x="520" y="520" width="130" height="40" as="geometry" />
        </mxCell>
        <mxCell id="C1amQC0InOEVrKZE8ie4-38" value="&lt;span style=&quot;font-family: &amp;quot;Courier New&amp;quot;; font-size: 11px; font-style: normal; font-variant-ligatures: normal; font-variant-caps: normal; font-weight: 400; letter-spacing: normal; orphans: 2; text-align: center; text-indent: 0px; text-transform: none; widows: 2; word-spacing: 0px; -webkit-text-stroke-width: 0px; white-space: nowrap; background-color: rgb(255, 255, 255); text-decoration-thickness: initial; text-decoration-style: initial; text-decoration-color: initial; float: none; display: inline !important; color: rgb(0, 0, 0);&quot;&gt;recordBtn =&amp;nbsp;&lt;font style=&quot;color: rgb(51, 102, 0);&quot;&gt;ON&lt;/font&gt;&lt;/span&gt;" style="text;whiteSpace=wrap;html=1;" parent="1" vertex="1">
          <mxGeometry x="340" y="530" width="130" height="40" as="geometry" />
        </mxCell>
        <mxCell id="C1amQC0InOEVrKZE8ie4-39" value="&lt;font face=&quot;Courier New&quot;&gt;recordBtn = &lt;font style=&quot;color: rgb(204, 0, 0);&quot;&gt;OFF&lt;/font&gt;&lt;/font&gt;" style="edgeLabel;html=1;align=center;verticalAlign=middle;resizable=0;points=[];" parent="1" vertex="1" connectable="0">
          <mxGeometry x="460.0033333333335" y="570.0000000000001" as="geometry" />
        </mxCell>
        <mxCell id="C1amQC0InOEVrKZE8ie4-40" value="&lt;font face=&quot;Courier New&quot;&gt;recordBtn = &lt;font style=&quot;color: rgb(51, 102, 0);&quot;&gt;ON&lt;/font&gt;&lt;/font&gt;" style="edgeLabel;html=1;align=center;verticalAlign=middle;resizable=0;points=[];" parent="1" vertex="1" connectable="0">
          <mxGeometry x="150.00333333333347" y="540.0000000000001" as="geometry" />
        </mxCell>
        <mxCell id="C1amQC0InOEVrKZE8ie4-41" value="&lt;font face=&quot;Courier New&quot;&gt;recordBtn = &lt;font style=&quot;color: rgb(204, 0, 0);&quot;&gt;OFF&lt;/font&gt;&lt;/font&gt;" style="edgeLabel;html=1;align=center;verticalAlign=middle;resizable=0;points=[];" parent="1" vertex="1" connectable="0">
          <mxGeometry x="210.0033333333335" y="570.0000000000001" as="geometry" />
        </mxCell>
        <mxCell id="C1amQC0InOEVrKZE8ie4-42" value="&lt;span style=&quot;font-family: &amp;quot;Courier New&amp;quot;; font-size: 11px; font-style: normal; font-variant-ligatures: normal; font-variant-caps: normal; font-weight: 400; letter-spacing: normal; orphans: 2; text-align: center; text-indent: 0px; text-transform: none; widows: 2; word-spacing: 0px; -webkit-text-stroke-width: 0px; white-space: nowrap; background-color: rgb(255, 255, 255); text-decoration-thickness: initial; text-decoration-style: initial; text-decoration-color: initial; float: none; display: inline !important; color: rgb(0, 0, 0);&quot;&gt;distortBtn =&amp;nbsp;&lt;font style=&quot;color: rgb(51, 102, 0);&quot;&gt;ON&lt;/font&gt;&lt;/span&gt;" style="text;whiteSpace=wrap;html=1;" parent="1" vertex="1">
          <mxGeometry x="250" y="580" width="130" height="40" as="geometry" />
        </mxCell>
        <mxCell id="C1amQC0InOEVrKZE8ie4-43" value="&lt;font face=&quot;Courier New&quot;&gt;distortBtn = &lt;font style=&quot;color: rgb(204, 0, 0);&quot;&gt;OFF&lt;/font&gt;&lt;/font&gt;" style="edgeLabel;html=1;align=center;verticalAlign=middle;resizable=0;points=[];" parent="1" vertex="1" connectable="0">
          <mxGeometry x="300.0033333333335" y="640.0000000000001" as="geometry" />
        </mxCell>
        <mxCell id="C1amQC0InOEVrKZE8ie4-44" value="&lt;font face=&quot;Courier New&quot;&gt;Start&lt;/font&gt;" style="edgeLabel;html=1;align=center;verticalAlign=middle;resizable=0;points=[];" parent="1" vertex="1" connectable="0">
          <mxGeometry x="448" y="290.0033333333332" as="geometry" />
        </mxCell>
        <mxCell id="-ECZf_3EkX3ALCF_ZWj3-1" style="edgeStyle=orthogonalEdgeStyle;rounded=0;orthogonalLoop=1;jettySize=auto;html=1;strokeWidth=2;entryX=0.5;entryY=0;entryDx=0;entryDy=0;" edge="1" parent="1" source="-ECZf_3EkX3ALCF_ZWj3-2" target="-ECZf_3EkX3ALCF_ZWj3-5">
          <mxGeometry relative="1" as="geometry">
            <mxPoint x="600" y="250" as="targetPoint" />
          </mxGeometry>
        </mxCell>
        <mxCell id="-ECZf_3EkX3ALCF_ZWj3-2" value="" style="shape=image;verticalLabelPosition=bottom;labelBackgroundColor=default;verticalAlign=top;aspect=fixed;imageAspect=0;image=https://static.vecteezy.com/system/resources/previews/017/221/041/original/electric-guitar-icon-free-vector.jpg;" vertex="1" parent="1">
          <mxGeometry x="600" y="45" width="80" height="80" as="geometry" />
        </mxCell>
        <mxCell id="-ECZf_3EkX3ALCF_ZWj3-3" style="edgeStyle=orthogonalEdgeStyle;rounded=0;orthogonalLoop=1;jettySize=auto;html=1;strokeWidth=2;" edge="1" parent="1" source="-ECZf_3EkX3ALCF_ZWj3-5" target="-ECZf_3EkX3ALCF_ZWj3-7">
          <mxGeometry relative="1" as="geometry">
            <mxPoint x="760.0000000000001" y="250" as="targetPoint" />
          </mxGeometry>
        </mxCell>
        <mxCell id="-ECZf_3EkX3ALCF_ZWj3-4" value="&lt;b&gt;&lt;font face=&quot;Comic Sans MS&quot;&gt;PA2&lt;/font&gt;&lt;/b&gt;" style="edgeLabel;html=1;align=center;verticalAlign=middle;resizable=0;points=[];" vertex="1" connectable="0" parent="-ECZf_3EkX3ALCF_ZWj3-3">
          <mxGeometry x="-0.1112" y="-3" relative="1" as="geometry">
            <mxPoint y="-3" as="offset" />
          </mxGeometry>
        </mxCell>
        <mxCell id="-ECZf_3EkX3ALCF_ZWj3-5" value="" style="shape=image;verticalLabelPosition=bottom;labelBackgroundColor=default;verticalAlign=top;aspect=fixed;imageAspect=0;image=https://img.freepik.com/premium-vector/vector-design-amplifier-icon-style_822882-147076.jpg;" vertex="1" parent="1">
          <mxGeometry x="600" y="210" width="80" height="80" as="geometry" />
        </mxCell>
        <mxCell id="-ECZf_3EkX3ALCF_ZWj3-6" style="edgeStyle=orthogonalEdgeStyle;rounded=0;orthogonalLoop=1;jettySize=auto;html=1;strokeWidth=2;" edge="1" parent="1" source="-ECZf_3EkX3ALCF_ZWj3-7">
          <mxGeometry relative="1" as="geometry">
            <mxPoint x="820.0000000000001" y="130" as="targetPoint" />
          </mxGeometry>
        </mxCell>
        <mxCell id="-ECZf_3EkX3ALCF_ZWj3-7" value="&lt;font face=&quot;Georgia&quot;&gt;&lt;b&gt;F103RB&lt;/b&gt;&lt;/font&gt;" style="rounded=0;whiteSpace=wrap;html=1;fillColor=#dae8fc;strokeColor=default;strokeWidth=2;" vertex="1" parent="1">
          <mxGeometry x="760" y="210" width="120" height="80" as="geometry" />
        </mxCell>
        <mxCell id="-ECZf_3EkX3ALCF_ZWj3-8" value="&lt;b&gt;&lt;font face=&quot;Comic Sans MS&quot;&gt;UART/USB&lt;/font&gt;&lt;/b&gt;" style="edgeLabel;html=1;align=center;verticalAlign=middle;resizable=0;points=[];" vertex="1" connectable="0" parent="1">
          <mxGeometry x="740.0020689655173" y="270" as="geometry">
            <mxPoint x="79" y="-100" as="offset" />
          </mxGeometry>
        </mxCell>
        <mxCell id="-ECZf_3EkX3ALCF_ZWj3-9" value="" style="shape=image;verticalLabelPosition=bottom;labelBackgroundColor=default;verticalAlign=top;aspect=fixed;imageAspect=0;image=data:image/png,iVBORw0KGgoAAAANSUhEUgAAAmAAAAETCAIAAAAeVy11AAAgAElEQVR4Ae3dCXQU9eHA8YC1rVhb23/tXW372vpeD8trrdZqqWI9EjkUyyaQhEsQpSiHRYVSwk04swFE3QTCfYnkkEuIQgIJ5JJswiHQBIhAuAQRItljdv8uA5PJzG83s7OxDZMvL6/dnczMznwyvu9vd2dno/z8QwABBBBAAAGdQJRuChMQQAABBBBAwE8gOQgQQAABBBAQCBBIAQqTEEAAAQQQIJAcAwgggAACCAgEwghkVJuor9/+zZ93/vXv+t17z0sPPjDmUX4QQAABBBBo4QL3DH/wrn73/vyJX93yo1uj2oRTPUE0dZPatG3z4wd+9tdJMdEOGz8IIIAAAghcpwIdJkT/8M8/adOmjS50gglNt/Trt3/zgTGPXqcWbDYCCCCAAAIagftHP3LLj24VJLHxpCYCedtvv//onG6aVSt3u6bHPbO416BlfeMWxMek8eQSAQQQQACB60Pgkdndvv2r7zYOovZeqEB+564fPP5GdyWH8o1OabGvrBqQs+XV2tJpLqdd+akrTynbMX5u9pD4jATNItxFAAEEEEDgixN4en6P55b2Gb16oD3rxemZg0euenbgkj5PpceFfsTH3+geupFBA9nutq89kvqUeu0xjth/rX62atcUJYrCG3XlKW+9+7JtQU/1stxGAAEEEECgeQV6L0p8/Z2hu3eMr3em6HtUV56yKy8pNevFnsGftv0t5cmbvtVO+8zx2n1xIKPaRN038mH1njw9v8f2bWP0WxBsysdlM/61+ln1GriNAAIIIIBAswj0Xdzr/a2jgwVIM72uPGXt5lfiMuKFD33vPx8KdmqrOJDfbf9D9Yp6Lex1aNdkzUO69y/0HN3gPZHvrS3wfJTrqVrjqpijnqe+3P76O0PV6+E2AggggAACkQh0TY97a9PLdeWCp4zqAOlvX9g9K33dMOHpMt/+9feuPWls9P+CQEa1iVKfthq7oOdHxVMbHqxitvf4Vl/9uUarke9Ibun8QfeBJQ0zO+1zcoZEYsGyCCCAAAIIyALxCxP2FkxSJybc2wV5SX+f30Pjed/IhwVF84uuxXrz925RFu6cFlu2Y7yyBe6Dy3yuT4QrUk30eU+XuZyp8lL15fZRqwcqK+QGAggggAACJgQGL+t3qqTRyaFX21T5mufIeu+ZcumTQ766E75Lx6RPDnpPl3mqszSva8rzVxdNSVyUqNmAm/7vZlXFrt4UPIP86aN3KksuWD9cqaOnOtMvefSrEE6RPj3sqpgtL3u6bPrTumIrD8ENBBBAAAEEQgvEZyTo6+jeN186t9/v8wozFJgoub1ndrv2vqmETL7xYeGkbo2rdMdDP9evRBDIP/zjAXlD4zLiP/lgprw694eL/N56/fIhpkhnK5RtWr7xn6F3nt8igAACCCAgFOiSHldRMEEJinzDW1tg9Dmb1+Wp2axZfNu2Mer3I9s/e58+Z4JA/vlff5M3cc27ryhr9F06rl+4ySnu/7wlr+HS7lmxQc4gEnIwEQEEEEAAAVlgxcYRSowCNyrmSOc/bDJAmhmuvPfX8Nl9l9Nuz3pREf7TiIc08/uF70E+NLVztMMWk2Y7ee1SAIEXV0398106ruzVzMzByqZwAwEEEEAAASMCCQsTL+2epaTE5bRLF6pMFckfeLlVdX2bk6XTnky/esJOh4kx+nUKnkHK1wcYsryfsqLAi7xm/7n3zZfXU5iXZMSCeRBAAAEEEFAE1uWOVGLkctq9p0vM5iiwnOfYe+q1pa8bJj9Qxxld9KsNGsjXc4Yqa/F56vRLGpzi+ShXXs+ZshnKDnMDAQQQQACBJgXiMxLqyxteF3UfWmkwPUFnkzzufelK3c6UzeiUFhvtsIUXyNWbXr66isp5QR/JwC+8p0uUTena1JXxmsRiBgQQQACB1iOQmvWiUhCX027ubBhNqaTz+9XrfHnlgLADueX9q1fxce/P0Kw9rLvSub3KpvRd3Kv1/F3ZUwQQQACBCAV25SUpBWmGp49yvXw+9Qc/sja/GnYgN+SOkjfLvS89rCJqZpbOOpXd67GQL/q4Pr4IJsJjmsURQACByAWeTO+hvqSc91SRpi+m76o/9XG8eGrYgVyy4aWrYauY7ff7TG+H9+ROeT2XnSlPOAIv9fKDAAIIIIBAkwL9F/dWnl8FXl+tqzVdIs2C0rmGV1nrnSmd02LDew9yZuZgZct8l89o1m78buBiP1dOq60pTm6SgxkQQAABBBCQBUas6K9kKBBI9yXj6Qk9p+/SMfWaey3sFV4gExYmKsubf2IreVyVc+X1yK/z8odHAAEEEEDAiMCUtwcpGXI57aEuKRe6h7rf+lzn5TXXO1Pqy+3Dlz8TXiCjHTbl0j7u/fPNbZn3TLmye6+uCpwpxA8CCCCAAAJGBKaubXgh80ogJV3pTE7w1V8NpFyoYSvCD+SszBeUvHlPl4W9Id56916HvIbDRcmdr3zWxAgK8yCAAAIIIDBi5QClQc39EmvDVd5cTnviosSwn0E+4Yg9sPPa9yRXzAnvAyg+n6c6U9m3pLee44+NAAIIIICAcYF+2pN0Tob9PC3IAtL5A0qeXE572CfpyPswYkX/eue1L27e84bv0rEgD9d4suTxHN2oPHxR/tgY3fmr9z/38D3d7+cHAQQQQAABoUD0pK6XlQAFLjJX2rg05u8pl3hzOe3HS6aF/TEPJfKOdcOU1LkqZgdO2JHcIbbLV3fCfXCZskhNcbLwezzad7z7zp/cyQ8CCCCAAAJCgQ7DHyvdPk6pifvQqhDpCedXPve+NGW12VvCv1CAEsgYR6zmWrHuvQ5vbUHg2WTD9yf7fO6L0sd71C+rupz2M6XTBy7po6xKfYNACg8IJiKAAAIIyAIdhj82O7vxpeY+OxVOCMXzSucPKnV0Oe2jVg80/wwy8NVXjtiM9cPVa2y4XTkvcCZORWrDlGtfJlK1a3KIa8sRSP4bQAABBBAIIdBh+GPxGQnquHiq1oijZ3yqz+ven6Gs8/wHM7tcuUh42CfpqJ/wRTts/1498FhJsrLeEDfqnSkbckd1X9BTswb1XQIZ4rDgVwgggAACHYY/Fu2w5V67MLgcHenjSuM11M/pPZGvjteiDS/JYYo0kNEOW9f0OMc7w2pLpqkfQH37s/KUgrykQUv7qlsovE0gOfoRQAABBEIIyIHss6iX+oqsrorZ0sUaffmMTFF/eYb8JuDT869+YXIzBFJOXUyabcjyfks3/PO9raM/2DHhw8JJhXlJ2VtGzsgcbAv5rFFdSgIZ4rDgVwgggAACciCjHba337329YvyW3iV86RPDxsponoe6eNKV8Vs9TO6eTlDlCo1WyCVNUZyg0By9COAAAIIhBBQAtltfo+Dyofyr53m4j1V4vcZu7aO5PEez1On0eW0F+Ylqb8/g0DyqRIEEEAAgetGQAlktMPWe1HimbIZmsi5P1wsXagK9X1TPq90bp97X7pmwSNFU/4+v9FZMgTyujksQgyp+BUCCCDQSgTUgYx22F5a0f/cBzM1qfv8cxrufWmej3Klc/ulizW+y2d9l89Inx4JfOzw6AbXnnn6+Y+VJPdf3FvzCiiBJJAIIIAAAteNgCaQ0Q5bv8W9q3ZN0TfP+JTPz5uJWxCvqWNEn4PUryvyKbwH2UrGgOwmAgggYE5AH8jPv2aq2/weG3NHNVwD9dpbkk02sq48ZeXGEcG+NoNnkNfNuMncwcRSCCCAgJUEhIGUn54NWta3MC+pySgqM2x+b3TvRYkhntoRSAKJAAIIIHDdCIQI5NVMLu27aMNL+3dOUkKouVFRMMHxzrAQ13RTkkkgr5vDwkpjQPYFAQQQMCfQZCCVvMVnJLy0ov+kNYNezxn6es7QiW8/P3T5M8L3GpVFNDcIJIFEAAEEELhuBIwHUlM7E3cJ5HVzWJgbbbEUAgggYCUBAkm0EEAAAQQQEAgQSAGKlUZA7AsCCCCAgDkBAkkgEUAAAQQQEAgQSAGKubEGSyGAAAIIWEmAQBJIBBBAAAEEBAIEUoBipREQ+4IAAgggYE6AQBJIBBBAAAEEBAIEUoBibqzBUggggAACVhIgkAQSAQQQQAABgQCBFKBYaQTEviCAAAIImBMgkAQSAQQQQAABgQCBFKCYG2uwFAIIIICAlQQIJIFEAAEEEEBAIEAgBShWGgGxLwgggAAC5gQIJIFEAAEEEEBAIEAgBSjmxhoshQACCCBgJQECSSARQAABBBAQCBBIAYqVRkDsCwIIIICAOQECSSARQAABBBAQCBBIAYq5sQZLIYAAAghYSYBAEkgEEEAAAQQEAgRSgGKlERD7ggACCCBgToBAEkgEEEAAAQQEAgRSgGJurMFSCCCAAAJWEiCQJgP5yzt+yQ8CCCCAQEsWiLDWBNJkINt9tV0U/xBAAAEEWqpA27ZtCaQt2mHmp33HuyOxI5At9T8KtgsBBBAICBBIM2mUg9pcgfzjvT35QQABBBBoOQLyAIFA/o8Defsdv5/r8PCDAAIIINByBO57oC/PIM3XMdpha5ZnkASy5fwnwZYggAACsgCBjKiOBJL/kBBAAAGrChBIAslLuwgggAACAgECSSAFh4VVx4PsFwIIIGBcgEASSAKJAAIIICAQIJAEUnBYGB9hMScCCCBgVQECSSAJJAIIIICAQIBAEkjBYWHV8SD7hQACCBgXIJAEkkAigAACCAgECCSBFBwWxkdYzIkAAghYVYBAEkgCiQACCCAgECCQBFJwWFh1PMh+IYAAAsYFCCSBJJAIIIAAAgIBAkkgBYeF8REWcyKAAAJWFSCQBJJAIoAAAggIBAgkgRQcFlYdD7JfCCCAgHEBAkkgCSQCCCCAgECAQBJIwWFhfITFnAgggIBVBQgkgSSQCCCAAAICAQJJIAWHhVXHg+wXAgggYFyAQBJIAokAAgggIBAgkARScFgYH2ExJwIIIGBVAQJJIAkkAggggIBAgEASSMFhYdXxIPuFAAIIGBcgkASSQCKAAAIICAQIJIEUHBbGR1jMiQACCFhVgEASSAKJAAIIICAQIJAEUnBYWHU8yH4hgAACxgUIJIEkkAgggAACAgECSSAFh4XxERZzIoAAAlYVIJAEkkAigAACCAgECCSBFBwWVh0Psl8IIICAcQECSSAJJAIIIICAQIBAEkjBYWF8hMWcCCCAgFUFCCSBJJAIIIAAAgIBAkkgBYeFVceD7BcCCCBgXIBAEkgCiQACCCAgECCQBFJwWBgfYTEnAgggYFUBAkkgCSQCCCCAgECAQBJIwWFh1fEg+4UAAggYFyCQBJJAIoAAAggIBAgkgRQcFsZHWMyJAAIIWFWAQBJIAokAAgggIBAgkARScFhYdTzIfiGAAALGBQgkgSSQCCCAAAICAQJJIAWHhfERFnMigAACVhUgkASSQCKAAAIICAQIJIEUHBZWHQ+yXwgggIBxAQJJIAkkAggggIBAgEASSMFhYXyExZwIIICAVQUIJIEkkAgggAACAgECSSAFh4VVx4PsFwIIIGBcgEASSAKJAAIIICAQIJAEUnBYGB9hMScCCCBgVQECSSAJJAIIIICAQIBAEkjBYWHV8SD7hQACCBgXIJAEkkAigAACCAgECCSBFBwWxkdYzIkAAghYVYBAEkgCiQACCCAgECCQBFJwWFh1PMh+IYAAAsYFCCSBJJAIIIAAAgIBAkkgBYeF8REWcyKAAAJWFSCQBJJAIoAAAggIBAgkgRQcFlYdD7JfCCCAgHEBAkkgCSQCCCCAgECAQBJIwWFhfITFnAgggIBVBQgkgSSQCCCAAAICAQJJIAWHhVXHg+wXAgggYFyAQBJIAokAAgggIBAgkARScFgYH2ExJwIIIGBVAQJJIAkkAggggIBAgEASSMFhYdXxIPuFAAIIGBcgkASSQCKAAAIICAQIJIEUHBbGR1jMiQACCFhVgEASSAKJAAIIICAQIJAEUnBYWHU8yH4hgAACxgUIJIEkkAgggAACAgECSSAFh4XxERZzIoAAAlYVIJAEkkAigAACCAgECCSBFBwWVh0Psl8IIICAcQECSSAJJAIIIICAQIBAEkjBYWF8hMWcCCCAgFUFCCSBJJAIIIAAAgIBAkkgBYeFVceD7BcCCCBgXIBAEkgCiQACCCAgECCQBFJwWBgfYTEnAgggYFUBAkkgCSQCCCCAgECAQBJIwWFh1fEg+4UAAggYFyCQBJJAIoAAAggIBAgkgRQcFsZHWMyJAAIIWFWAQBJIAokAAgggIBAgkARScFhYdTzIfiGAAALGBQgkgSSQCCCAAAICAQJJIAWHhfERFnMigAACVhUgkASSQCKAAAIICAQIJIEUHBZWHQ+yXwgggIBxAQJJIAkkAggggIBAgEASSMFhYXyExZwIIICAVQUIJIEkkAgggAACAgECSSAFh4VVx4PsFwIIIGBcgEASSAKJAAIIICAQIJAEUnBYGB9hMScCCCBgVQECSSAJJAIIIICAQIBAEkjBYWHV8SD7hQACCBgXIJAEkkAigAACCAgECCSBFBwWxkdYzIkAAghYVYBAEkgCiQACCCAgECCQBFJwWFh1PMh+IYAAAsYFCCSBJJAIIIAAAgIBAkkgBYeF8REWcyKAAAJWFSCQBJJAIoAAAggIBAgkgRQcFlYdD7JfCCCAgHEBAkkgCSQCCCCAgECAQBJIwWFhfITFnAgggIBVBQgkgSSQCCCAAAICAQJJIAWHhVXHg+wXAgggYFyAQBJIAokAAgggIBAgkARScFgYH2ExJwIIIGBVAQJJIAkkAggggIBAgEC2iEBGRUW1/303fhBAAAEEWo5A1JV/bdu2vfMnd0by02H4Y9GOSFtjcA0dZ3Tx6/5F6ab4H0l9yuAaI5mtfce7I4Fr99V28t+A/0UAAQQQaIECBNJ82wlkCzyg2SQEEECguQQI5P8skJE8+2RZBBBAAIGWL8BLrBG9Qt3y/8BsIQIIIICAOQECSSARQAABBBAQCBBIAYq5sQZLIYAAAghYSYBAEkgEEEAAAQQEAgRSgGKlERD7ggACCCBgToBAEkgEEEAAAQQEAgRSgGJurMFSCCCAAAJWEiCQBBIBBBBAAAGBAIEUoFhpBMS+IIAAAgiYEyCQBBIBBBBAAAGBAIEUoJgba7AUAggggICVBAgkgUQAAQQQQEAgQCAFKFYaAbEvCCCAAALmBAgkgUQAAQQQQEAgQCAFKObGGiyFAAIIIGAlAQJJIBFAAAEEEBAIEEgBipVGQOwLAggggIA5AQJJIBFAAAEEEBAIEEgBirmxBkshgAACCFhJgEASSAQQQAABBAQCBFKAYqUREPuCAAIIIGBOgEASSAQQQAABBAQCBFKAYm6swVIIIIAAAlYSIJAEEgEEEEAAAYEAgRSgWGkExL4ggAACCJgTIJAEEgEEEEAAAYEAgRSgmBtrsBQCCCCAgJUECCSBRAABBBBAQCBAIAUoVhoBsS8IIIAAAuYECCSBRAABBBBAQCBAIAUo5sYaLIUAAgggYCUBAkkgEUAAAQQQEAgQSAGKlUZA7AsCCCCAgDkBI4HsvqDn9MzBOVteLcxLOrBz8snSaYd2TS7KH7shd1Rq1gs9MxKiHTYjPx1ndPHr/kXppvgfSX3KyOoinKd9x7vNkbEUAggggEBrEAgRyBhH7IQ1zxflj/2sPMXltIf4qSycmJr1Que02NDN+kICmbAw8bWcIe9vHV1RMKG2ZFpdecrJ0ml7CyZt3zYmfd3wAUt6xzjEm0UgW8PxzT4igAACpgWCBXLEiv57CieGiKL+V0eLkqes/UdMWtBnk80ZyE5psTMzB1cUTNBvh2bKkaIp6euGPZUep6k3gTR90LAgAggg0BoE9IHskh63PneUpjLG7xblj+2+oKcmRvLd5glkjCM26a3nqnZNMb5NLqf9dOn0OTlD1E9yCWRrOL7ZRwQQQMC0gCaQcQvid+8YHyQ9qe596e5DKz3VWe5Dq9z7M1wVs4VzHi1KHrikt76RzRDIp9Lj3n//38JHNTKxsmBi/MKrb5k+NPaJv778OD8IIIAAAggIBR6d1U0pWWxG/JGiZH1oPIezpXP7/N7L2vNpJLd0ocpT866+lOc+mPHM4l7KmpvnGWTiwoT9Oyfpty8wpWKO+8AST9Vaz9GNgYAfXO7aM08456mSacOXP6PZMu4igAACCCAQTKBTWmxJ/jhNU9yHVvnqarVd1N331Z/zHH5Hs2x10ZS/z2/0WmtEzyB7LEw4UTJV8xguZ6rn6EbpQpVf8mi3yif5Lh3zHt/mqpyrWeri7lmDl/ULBsF0BBBAAAEE1AKrN72s6Yj3xHa/36ftTvD73rPlropU9UoK85LU55CaD2TntNhy3fk4nuq1vstng2/P1d/43Bc9H21Rb5bLaa8tmdbj2mutagVuI4AAAgggoBZ4bmmfemejz3JIZyuaTI9+BuniUVfFHHWMkt56Tnkg84HM3PyqeqUup917skj/8CGmSOc/1GyZc8eEEGfcKhvNDQQQQACB1iywfdsYdYC8tQUhWhP6V9L5/epVVe2a3Ona5yNNBnLQ0r7qNbqcdunc/tAbIfytr65W83Lr1LWDW/NfnX1HAAEEEAgtMGRZP3WAPNVrw3plVR+jwBt/qgsLzMp8Qd4Ak4EszEtSr857Krznjurtky5UqVd1vHhqV93nI0Nj8VsEEEAAgdYjkL1F/fplqpH39dTREdz21rv2vKGUqGzHeBnTTCCHrXhGWZHLafcczhY8XjiTvLWF6hW+ljOk9fyl2VMEEEAAAeMCMWm2k6XTlGR4ajaFU5ug83pPlyjrrC+3xy2Ij3bYzAQye8tIZUWuilRf/bmgj2nwF5LbvS9NWWdl4UTjWMyJAAIIINB6BDSvr0qfHjbYmdCz+VwXlAa5nPZZWYE3+8IOZEya7VSJut6bQz+qwd8GTrdVvQScyOmsxi4233r+q2BPEUAAgWiH7fWcoQ2xqJwr+DyhweroZnMfWKqsOXvLSDOBHLK80buj0qdHdY9iZoLPfUnZMpfTPjebV1mDXj+X/0gQQACBViug/vij++ByM70Jsozn6EYlQwV5SWYCOS9niLIKV+Vrfp83yGOFPdl9aKWy5g25o1rtn58dRwABBBAIJpD7/milFJ7qrLBLE3wB74l8Zc0Hdk42E8iVm0Yoq2jmetdsVtZcnD82mA7TEUAAAQRarUDZ9obLyzXXGTpyNL2nipUG1ZZOMxPIze99YfWu3aFsXNWuQL35QQABBBBAQC2wbWvDd2NE/hkK9fPJZngGWZw/VsmY5+hG9dojvO09Xaqs+XTpdLUItxFAAAEEEIh22Na8+4pSiuZ+FfNdZc27rryKGfZZrFsavf6bGWEU1Yt7TzQ8gzx45fVfjgYEEEAAAQTUAm+8oz6LdV5zngdzcLkSSPk8mLAD2eg9yANL1YWL8LZH9R6kXG81CrcRQAABBBAYsXKAkrHAVU4v1kSYHnlxzScpUrMCV5sLO5Bzs9Vnsc5t1novU3Z7PWex8hYsAggggIBOoFNa7JnS6UosPMfea5ZAes/sVtbpctrjMxLMBHLo8kbXmZMuVDfLxvncF9UbNzOTS5ZzjhICCCCAgEBgXa76am6zffXnI82Q5HLvdSgNUq7mFvYzyJg0W+0Xch28MmXj6p0pcRmB6+DxgwACCCCAgEZA8yqr53BOhIFUnwHjctrnZL8oP6LRQD44+QllEzNVJxG5nM1/JXXnjgnKY3EDAQQQQAABtUCMI7Ykv+HTkIFvIz5VYrqR0ieHlKdnLqe9pji587Xvg/zLuMf1q43ST7rv1YeV7dNcK9ZT9XbE38WVp94++d1R5eG4gQACCCCAgFpgcOOvhAycrXP+Q325mpziu3Rc853EyWsHKQ90z/AH9WsQBLL9gPuUZT5/6zJ/a+Nvcz6xQ78Wg1M03+Z8pGiKUm/1I3IbAQQQQAABRWDdllHqZ1ZXnkeG983EgfpUzFGvpGzH+Ji0hnf37upzjz5kgkD++IGfKZsV7bANWNKnvtyuXq/3bLl+RU1OkS4e1WzfxDUN9VY/IrcRQAABBBBQBLqmx1UWTFRnSP5+Yt/lj5tMj899Sf3BQnklx0umyV8DqTzED+69Q78qQSC/cutNyjLyDfUl1eW1e4/n+X0+/eqCTZHOVrgqUtW7tyt/rLremkfkLgIIIIAAAopAj4UJJ0qmqiNy5Xaqp2aTdKFK8E1YPkm6+JH3+DbNy6oup/3i7lmDl/VT1hztsD3+Zvcbb/6yvl+CQPr9/j8O7aBeuFNabHHjt0ldTrv70Cpf3Qn9GjVTfPXnPUfWafaqpjjZtqCn+iG4jQACCCCAQAiBPot6Hdg5WVOTq3cr5rgPLPVUrfUc3eCpzgp83eOeecI5a0umvbC8r+ZRfj/ofk255LviQH7jp9/SLG9b0PNIUbL+8TzVWdK5fX7PZ9q1S27pk/94aja5KmZrlvrkg5nPLe2jWT93EUAAAQQQCC3wVHrce1sbvkVDE5cm71YUTOh55bIAmke55Ue3ahN25b44kH6/X3OqTrTD1mNhQnnBhGBb4N43331whac6031olXv/An0X5QVripMHLumt2TjuIoAAAgggYEQgxhE7fs3z1UVTgsVIOP106XR71oudrn2oQ/1Ad/UVnJ4T6hmk3+//0k03/nVijHot0Q5b57TYrM2vCh/eyMTS7eNiuSwAV0VAAAEEEIhMoFNa7Kyswft3TmoyPYeLkjPWD+82v4cmZ/Ldv4x7/IavfEn49NHv9wd9Bun3+2/54Tf+lvKkfqUjVg7YU6g9oSj0VtYUJ09+exBn5egxmYIAAgggYFogcVHinJwh27aNqSyYeLx4al15yunS6XsLJuVt+3fG+uHPLukT44gNtvKHZ3a9+Xu3BKtjE4H0+/3tvvO1DrrnkdEOW4wjdsKa58u2j7vsTAmdxsrCiXOzh3RJjwu2iUxHAAEEEEDgv+BpwSwAAAENSURBVCzQYXz0Td++OUQdmw6k3++/8eYv/ybx7ug3Gz5Qqd4N24KeU9cOXp87alf+2AM7J58unV5dNKU4f9yG3FFzs4ckLgxcJZ0fBBBAAAEEWojA4292/03CH25sJ/hch6aXoV5iVc/69du/2X7AfY/O6dZC9pDNQAABBBBAICyBR2Z3+13/PwU7Z1WdPPm20UDKc99w4w23/fb7d3T8xZ1P3/XbXn/kBwEEEEAAgRYucGe3u+7o+IvbfvP9tjfeoK9giCnhBTLEivgVAggggAACVhIgkFb6a7IvCCCAAALNJkAgm42SFSGAAAIIWEmAQFrpr8m+IIAAAgg0mwCBbDZKVoQAAgggYCWB/wdeZuILUn7EnQAAAABJRU5ErkJggg==;" vertex="1" parent="1">
          <mxGeometry x="960" y="210" width="176.86" height="80" as="geometry" />
        </mxCell>
        <mxCell id="-ECZf_3EkX3ALCF_ZWj3-10" style="edgeStyle=orthogonalEdgeStyle;rounded=0;orthogonalLoop=1;jettySize=auto;html=1;strokeWidth=2;entryX=0;entryY=0.5;entryDx=0;entryDy=0;" edge="1" parent="1" target="-ECZf_3EkX3ALCF_ZWj3-9">
          <mxGeometry relative="1" as="geometry">
            <mxPoint x="960" y="250" as="targetPoint" />
            <mxPoint x="880" y="250" as="sourcePoint" />
          </mxGeometry>
        </mxCell>
        <mxCell id="-ECZf_3EkX3ALCF_ZWj3-11" value="&lt;b&gt;&lt;font face=&quot;Comic Sans MS&quot;&gt;SDA&lt;/font&gt;&lt;/b&gt;&lt;div&gt;&lt;b&gt;&lt;font face=&quot;Comic Sans MS&quot;&gt;SCL&lt;/font&gt;&lt;/b&gt;&lt;/div&gt;" style="edgeLabel;html=1;align=center;verticalAlign=middle;resizable=0;points=[];" vertex="1" connectable="0" parent="-ECZf_3EkX3ALCF_ZWj3-10">
          <mxGeometry x="-0.1112" y="-3" relative="1" as="geometry">
            <mxPoint y="-3" as="offset" />
          </mxGeometry>
        </mxCell>
        <mxCell id="-ECZf_3EkX3ALCF_ZWj3-12" value="$$I^2C \ display$$" style="text;html=1;align=center;verticalAlign=middle;resizable=0;points=[];autosize=1;strokeColor=none;fillColor=none;" vertex="1" parent="1">
          <mxGeometry x="985" y="174" width="116" height="26" as="geometry" />
        </mxCell>
        <mxCell id="-ECZf_3EkX3ALCF_ZWj3-13" value="$$guitar$$" style="text;html=1;align=center;verticalAlign=middle;resizable=0;points=[];autosize=1;strokeColor=none;fillColor=none;" vertex="1" parent="1">
          <mxGeometry x="600" y="10" width="75" height="26" as="geometry" />
        </mxCell>
        <mxCell id="-ECZf_3EkX3ALCF_ZWj3-14" value="$$preamp$$" style="text;html=1;align=center;verticalAlign=middle;resizable=0;points=[];autosize=1;strokeColor=none;fillColor=none;" vertex="1" parent="1">
          <mxGeometry x="600" y="298" width="85" height="26" as="geometry" />
        </mxCell>
        <mxCell id="-ECZf_3EkX3ALCF_ZWj3-15" value="" style="ellipse;whiteSpace=wrap;html=1;fillColor=#f5f5f5;fontColor=#333333;strokeColor=default;" vertex="1" parent="1">
          <mxGeometry x="770" y="340" width="20" height="20" as="geometry" />
        </mxCell>
        <mxCell id="-ECZf_3EkX3ALCF_ZWj3-16" value="" style="ellipse;whiteSpace=wrap;html=1;fillColor=#f5f5f5;fontColor=#333333;strokeColor=default;" vertex="1" parent="1">
          <mxGeometry x="810" y="340" width="20" height="20" as="geometry" />
        </mxCell>
        <mxCell id="-ECZf_3EkX3ALCF_ZWj3-17" value="" style="ellipse;whiteSpace=wrap;html=1;fillColor=#f5f5f5;fontColor=#333333;strokeColor=default;" vertex="1" parent="1">
          <mxGeometry x="850" y="340" width="20" height="20" as="geometry" />
        </mxCell>
        <mxCell id="-ECZf_3EkX3ALCF_ZWj3-18" style="edgeStyle=orthogonalEdgeStyle;rounded=0;orthogonalLoop=1;jettySize=auto;html=1;entryX=0.5;entryY=1;entryDx=0;entryDy=0;exitX=0.5;exitY=0;exitDx=0;exitDy=0;strokeWidth=2;" edge="1" parent="1" source="-ECZf_3EkX3ALCF_ZWj3-16" target="-ECZf_3EkX3ALCF_ZWj3-7">
          <mxGeometry relative="1" as="geometry">
            <mxPoint x="790" y="350" as="sourcePoint" />
            <mxPoint x="790" y="303" as="targetPoint" />
          </mxGeometry>
        </mxCell>
        <mxCell id="-ECZf_3EkX3ALCF_ZWj3-19" style="edgeStyle=orthogonalEdgeStyle;rounded=0;orthogonalLoop=1;jettySize=auto;html=1;entryX=0.5;entryY=1;entryDx=0;entryDy=0;exitX=0.5;exitY=0;exitDx=0;exitDy=0;strokeWidth=2;" edge="1" parent="1">
          <mxGeometry relative="1" as="geometry">
            <mxPoint x="859.71" y="340" as="sourcePoint" />
            <mxPoint x="859.71" y="290" as="targetPoint" />
          </mxGeometry>
        </mxCell>
        <mxCell id="-ECZf_3EkX3ALCF_ZWj3-20" style="edgeStyle=orthogonalEdgeStyle;rounded=0;orthogonalLoop=1;jettySize=auto;html=1;entryX=0.5;entryY=1;entryDx=0;entryDy=0;exitX=0.5;exitY=0;exitDx=0;exitDy=0;strokeWidth=2;" edge="1" parent="1">
          <mxGeometry relative="1" as="geometry">
            <mxPoint x="779.71" y="340" as="sourcePoint" />
            <mxPoint x="779.71" y="290" as="targetPoint" />
          </mxGeometry>
        </mxCell>
        <mxCell id="-ECZf_3EkX3ALCF_ZWj3-21" value="$$pw$$" style="text;html=1;align=center;verticalAlign=middle;resizable=0;points=[];autosize=1;strokeColor=none;fillColor=none;" vertex="1" parent="1">
          <mxGeometry x="745.5" y="358" width="70" height="30" as="geometry" />
        </mxCell>
        <mxCell id="-ECZf_3EkX3ALCF_ZWj3-22" value="$$dist$$" style="text;html=1;align=center;verticalAlign=middle;resizable=0;points=[];autosize=1;strokeColor=none;fillColor=none;" vertex="1" parent="1">
          <mxGeometry x="785" y="358" width="70" height="30" as="geometry" />
        </mxCell>
        <mxCell id="-ECZf_3EkX3ALCF_ZWj3-23" value="$$rec$$" style="text;html=1;align=center;verticalAlign=middle;resizable=0;points=[];autosize=1;strokeColor=none;fillColor=none;" vertex="1" parent="1">
          <mxGeometry x="825" y="358" width="70" height="30" as="geometry" />
        </mxCell>
        <mxCell id="-ECZf_3EkX3ALCF_ZWj3-24" value="" style="fontColor=#333333;verticalAlign=top;verticalLabelPosition=bottom;labelPosition=center;align=center;html=1;outlineConnect=0;fillColor=#f5f5f5;strokeColor=#666666;gradientDirection=north;strokeWidth=2;shape=mxgraph.networks.pc;" vertex="1" parent="1">
          <mxGeometry x="760" y="50" width="120" height="80" as="geometry" />
        </mxCell>
        <mxCell id="-ECZf_3EkX3ALCF_ZWj3-25" value="$$PC$$" style="text;html=1;align=center;verticalAlign=middle;resizable=0;points=[];autosize=1;strokeColor=none;fillColor=none;" vertex="1" parent="1">
          <mxGeometry x="794" y="14" width="61" height="26" as="geometry" />
        </mxCell>
        <mxCell id="-ECZf_3EkX3ALCF_ZWj3-26" value="&lt;font face=&quot;Comic Sans MS&quot;&gt;&lt;b&gt;BUTTON1&lt;/b&gt;&lt;/font&gt;" style="edgeLabel;html=1;align=center;verticalAlign=middle;resizable=0;points=[];" vertex="1" connectable="0" parent="1">
          <mxGeometry x="719.9985714285715" y="270" as="geometry">
            <mxPoint x="51" y="53" as="offset" />
          </mxGeometry>
        </mxCell>
        <mxCell id="-ECZf_3EkX3ALCF_ZWj3-27" value="&lt;font face=&quot;Comic Sans MS&quot;&gt;&lt;b&gt;PC_8&lt;/b&gt;&lt;/font&gt;" style="edgeLabel;html=1;align=center;verticalAlign=middle;resizable=0;points=[];" vertex="1" connectable="0" parent="1">
          <mxGeometry x="809.9985714285715" y="270" as="geometry">
            <mxPoint x="51" y="53" as="offset" />
          </mxGeometry>
        </mxCell>
        <mxCell id="-ECZf_3EkX3ALCF_ZWj3-28" value="&lt;font face=&quot;Comic Sans MS&quot;&gt;&lt;b&gt;PC_6&lt;/b&gt;&lt;/font&gt;" style="edgeLabel;html=1;align=center;verticalAlign=middle;resizable=0;points=[];" vertex="1" connectable="0" parent="1">
          <mxGeometry x="769.9985714285715" y="270" as="geometry">
            <mxPoint x="51" y="53" as="offset" />
          </mxGeometry>
        </mxCell>
      </root>
    </mxGraphModel>
  </diagram>
</mxfile>
